<svg width="176" height="149" viewBox="0 0 176 149" fill="none" xmlns="http://www.w3.org/2000/svg">
<path d="M104.515 70.8614V146.707" stroke="#2A272D" stroke-width="1.9882" stroke-miterlimit="10"/>
<path d="M165.473 70.8614V146.707" stroke="#2A272D" stroke-width="1.9882" stroke-miterlimit="10"/>
<path d="M68.4728 94.2851C68.4728 94.2851 80.1701 91.8986 81.9312 98.7518C83.4522 104.633 67.5423 104.407 67.5423 104.407L32.5604 104.597C32.5604 104.597 19.3822 105.965 12.8681 92.2858C6.35407 78.6063 0.0801575 42.7819 0.0801575 42.7819C0.0801575 42.7819 -0.860431 37.8558 3.70242 37.1354C9.06577 36.2889 10.1164 46.7174 10.1164 46.7174C10.1164 46.7174 18.2215 90.935 29.9888 93.0963C31.8 93.4295 33.2409 94.6633 35.092 94.6453L68.4728 94.2851Z" fill="#FFEEE3"/>
<path d="M99.562 58.5688L110.609 57.8844C111.509 57.8303 112.37 58.1995 112.88 58.857L119.054 67.2592L113.801 67.4843L110.839 63.3868C110.839 63.3868 102.304 65.305 99.1517 63.3868L99.562 58.5688Z" fill="#F2C09E"/>
<path d="M55.0642 31.3448L69.8234 56.0292L100.493 56.9117V65.9894L68.1024 67.2682C63.8197 67.4393 59.7571 65.5931 57.3556 62.3961L42.6164 38.5763L55.0642 31.3448Z" fill="#EFC375"/>
<path d="M100.492 56.9027V65.9804L97.0704 66.1155V56.8036L100.492 56.9027Z" fill="#F7E5DA"/>
<path d="M84.4223 130.073L86.1534 140.988L94.8789 140.502L93.6281 129.236L84.4223 130.073Z" fill="#FCC9A7"/>
<path d="M84.2024 139.88C84.3925 139.367 85.0729 139.16 85.5632 139.475C86.5238 140.088 88.2149 140.817 90.6464 140.538C93.178 140.25 94.0685 139.034 94.3787 138.178C94.5388 137.728 95.0792 137.485 95.5695 137.656L111.299 143.203C112.26 143.537 113.02 144.203 113.431 145.05C113.811 145.842 113.18 146.734 112.21 146.752L85.5732 147.103C84.5226 147.121 83.6821 146.337 83.7221 145.392L83.9122 140.763C83.9122 140.682 83.9322 140.61 83.9622 140.538L84.2024 139.88Z" fill="#1F252A"/>
<path d="M57.9158 29.2285L60.4173 32.8397C60.5774 33.1819 60.6475 34.0104 59.9571 34.3166L58.9865 34.947L56.9052 32.0832L57.9158 29.2285Z" fill="#FFEEE3"/>
<path d="M53.253 33.0467L52.4625 32.7045C49.8609 31.5608 48.7802 28.7331 50.051 26.3916L58.4963 10.8299L67.8721 14.9545L58.116 32.3803C57.0754 34.3165 55.4043 33.9923 53.253 33.0467Z" fill="#FCC9A7"/>
<path d="M74.8665 18.0255C72.1147 23.0866 65.3205 25.1939 59.697 22.7174C54.0735 20.2408 51.732 14.135 54.4837 9.06486C57.2354 4.0037 64.0197 1.89639 69.6532 4.37293C75.2867 6.84948 77.6182 12.9643 74.8665 18.0255Z" fill="#FCC9A7"/>
<path d="M61.1781 28.0937C58.5064 26.923 57.3957 24.0142 58.7065 21.6097L63.4695 12.8292L74.9567 17.8813L71.0743 25.0408C69.2731 28.3369 64.8404 29.7147 61.1781 28.0937Z" fill="#FCC9A7"/>
<path d="M73.4658 19.9436L74.0862 23.8701C74.1362 24.4914 73.4057 24.8967 72.7653 24.6175L69.9436 23.9241L73.4658 19.9436Z" fill="#FCC9A7"/>
<path d="M63.5193 17.9804C63.5193 17.9804 67.4918 18.2145 68.1422 12.6941C68.1422 12.6941 75.0465 16.6566 77.8582 15.0806C77.8582 15.0806 78.7188 -0.535182 64.3798 0.0141613C50.0409 0.563504 48.9202 14.4952 48.9202 14.4952L56.9652 21.0333L63.5193 17.9804Z" fill="#1C2226"/>
<path d="M64.0896 18.2056C63.3391 19.6014 61.468 20.1778 59.917 19.4934C58.376 18.8089 57.7256 17.1339 58.4861 15.738C59.2366 14.3422 61.1077 13.7658 62.6587 14.4502C64.1997 15.1346 64.8401 16.8097 64.0896 18.2056Z" fill="#FCC9A7"/>
<path d="M55.3345 16.1342L53.2031 20.61C53.2031 20.61 57.8861 23.9871 60.2475 19.6374L56.8454 18.7729L55.3345 16.1342Z" fill="#1C2226"/>
<path d="M68.1421 12.694C68.1421 12.694 77.498 19.1961 81.1903 13.7477C84.1321 9.39797 80.8601 6.57922 76.1371 7.28165C74.0959 7.58784 73.0852 6.34507 71.4842 5.36346L68.1421 12.694Z" fill="#1C2226"/>
<path d="M59.737 37.1263C59.737 37.1263 59.5269 33.1548 58.126 31.777C56.7251 30.3991 49.2605 26.5988 49.2605 26.5988C49.2605 26.5988 38.5238 29.3995 31.9296 40.4404C26.7964 49.0408 21.9634 70.8074 21.9634 70.8074L52.9428 74.8509C55.6144 58.5867 60.6175 51.1751 59.737 37.1263Z" fill="#FFD686"/>
<path d="M49.7807 25.8332L48.4898 26.3556C48.0296 26.5447 47.9295 27.103 48.3097 27.4092L56.4948 33.9653C56.8251 34.2355 57.3454 34.1544 57.5755 33.8122L58.4961 32.3803C58.6662 32.1102 58.5962 31.7679 58.326 31.5698L50.5011 25.9323C50.301 25.7702 50.0208 25.7342 49.7807 25.8332Z" fill="#FFEEE3"/>
<path d="M96.1497 60.0457L107.197 59.3612C108.097 59.3072 108.958 59.6764 109.468 60.3338L115.132 67.5834L109.838 68.1957L107.427 64.8547C107.427 64.8547 98.8914 66.7729 95.7395 64.8547L96.1497 60.0457Z" fill="#FCC9A7"/>
<path d="M48.7903 33.1818L65.4607 58.4966L97.0804 59.2801V67.4662L62.9591 68.8081C59.7571 68.9342 56.7052 67.5563 54.9041 65.1608L36.3425 40.4134L48.7903 33.1818Z" fill="#FFD686"/>
<path d="M97.0802 59.2802V67.4573L93.6581 67.5924V59.2802H97.0802Z" fill="#FFEEE3"/>
<path d="M21.9636 70.8074L82.9016 78.7593C87.5645 79.3717 91.1668 82.7669 91.6171 86.9905L96.1599 133.703L82.5514 134.495L76.0073 94.0059L37.7434 94.8974C27.357 94.8974 19.392 86.5942 20.9029 77.3455L21.9636 70.8074Z" fill="#54585A"/>
<path d="M129.971 67.2682H97.8311V69.1414H129.971V67.2682Z" fill="#2A272D"/>
<path d="M129.981 69.1413L140.378 41.8093L138.196 41.341L128 67.5924L129.981 69.1413Z" fill="#2A272D"/>
<path d="M60.6676 27.8415C60.6676 27.8415 57.7758 26.3016 57.7758 23.0596C57.7758 23.0596 55.9747 26.5718 59.647 29.6607L60.6676 27.8415Z" fill="#F2C09E"/>
<path d="M13.2285 148.472C13.7088 148.472 14.149 148.175 14.2791 147.733L30.1891 91.2771C31.5099 86.6032 36.1628 83.3341 41.5261 83.3341C46.7294 83.3341 51.3523 86.4771 52.7732 90.9799C58.3366 108.622 71.2847 147.112 71.4148 147.499C71.5849 148.012 72.1953 148.31 72.7656 148.148C73.336 147.994 73.6662 147.445 73.4861 146.932C73.356 146.545 60.4079 108.073 54.8545 90.4486C53.1734 85.1082 47.69 81.3799 41.5161 81.3799C35.1622 81.3799 29.6387 85.2523 28.0777 90.7908L12.1678 147.256C12.0177 147.778 12.3679 148.31 12.9483 148.445C13.0484 148.463 13.1384 148.472 13.2285 148.472Z" fill="#1F252A"/>
<path d="M54.9144 65.1518L45.3584 52.4269" stroke="#EFC375" stroke-width="0.7847" stroke-miterlimit="10" stroke-linecap="round" stroke-linejoin="round"/>
<path d="M176 69.1413H92.7381V72.5184H176V69.1413Z" fill="#FFEEE3"/>
<path d="M104.515 80.7225H165.473" stroke="#2A272D" stroke-width="1.9882" stroke-miterlimit="10"/>
<path d="M60.5179 50.3645L51.3621 37.0813" stroke="#EFC375" stroke-width="0.7847" stroke-miterlimit="10" stroke-linecap="round" stroke-linejoin="round"/>
</svg>
